<svg width="180" height="60" viewBox="0 0 180 60" fill="none" xmlns="http://www.w3.org/2000/svg">
  <!-- Mango Icon -->
  <g transform="translate(0, 5)">
    <path d="M25 10 C35 5, 45 5, 50 15 C55 25, 50 40, 35 45 C20 50, 10 40, 10 25 C10 15, 15 12, 25 10 Z" fill="#FF8C00" opacity="0.9"/>
    <path d="M30 8 C32 7, 35 6, 38 8 C40 10, 39 13, 37 15 C35 17, 32 16, 30 14 C28 12, 28 9, 30 8 Z" fill="#4A7C59"/>
    <ellipse cx="28" cy="25" rx="3" ry="8" fill="#FFB84D" opacity="0.3" transform="rotate(-20 28 25)"/>
  </g>
  
  <!-- Text: MANGO -->
  <text x="65" y="28" font-family="Playfair Display, serif" font-size="20" font-weight="900" fill="#1a1816" letter-spacing="-0.5">MANGO</text>
  
  <!-- Text: SPIRIT -->
  <text x="65" y="45" font-family="Inter, sans-serif" font-size="14" font-weight="300" fill="#B8860B" letter-spacing="2">SPIRIT</text>
  
  <!-- Decorative line -->
  <line x1="65" y1="32" x2="175" y2="32" stroke="#D4AF37" stroke-width="0.5" opacity="0.3"/>
</svg>

