<svg width="180" height="50" viewBox="0 0 180 50" fill="none" xmlns="http://www.w3.org/2000/svg">
  <!-- Mango Icon -->
  <g transform="translate(5, 8)">
    <!-- Mango Shape -->
    <path d="M18 6 C26 2, 35 3, 38 14 C40 22, 36 30, 26 33 C16 36, 8 30, 8 20 C8 12, 11 8, 18 6 Z" 
          fill="url(#compactGrad)" 
          stroke="#FF8C00" 
          stroke-width="1.2"/>
    
    <!-- Leaf -->
    <path d="M22 4 C24 3, 27 3, 29 6 C31 8, 30 11, 28 13 C26 15, 23 14, 21 12 C20 10, 20 6, 22 4 Z" 
          fill="#4A7C59" 
          stroke="#2D5A3D" 
          stroke-width="0.8"/>
    
    <!-- Shine -->
    <ellipse cx="20" cy="18" rx="4" ry="8" fill="white" opacity="0.25" transform="rotate(-20 20 18)"/>
  </g>
  
  <defs>
    <linearGradient id="compactGrad" x1="0%" y1="0%" x2="100%" y2="100%">
      <stop offset="0%" style="stop-color:#FFB84D;stop-opacity:1" />
      <stop offset="60%" style="stop-color:#FF8C00;stop-opacity:1" />
      <stop offset="100%" style="stop-color:#FF6B00;stop-opacity:1" />
    </linearGradient>
  </defs>
  
  <!-- MANGO SPIRIT Text -->
  <text x="55" y="23" 
        font-family="Playfair Display, Georgia, serif" 
        font-size="20" 
        font-weight="900" 
        fill="#1a1816">
    MANGO
  </text>
  
  <text x="134" y="23" 
        font-family="Playfair Display, Georgia, serif" 
        font-size="20" 
        font-weight="700" 
        fill="#B8860B">
    SPIRIT
  </text>
  
  <!-- Decorative element -->
  <line x1="55" y1="29" x2="175" y2="29" stroke="#D4AF37" stroke-width="0.5" opacity="0.4"/>
  
  <!-- Tagline -->
  <text x="55" y="40" 
        font-family="Inter, Arial, sans-serif" 
        font-size="7" 
        font-weight="400" 
        fill="#B8860B" 
        opacity="0.8" 
        letter-spacing="2">
    CARIBBEAN LUXURY RAKIA
  </text>
</svg>

